<?xml version="1.0" encoding="UTF-8" standalone="no"?>
<svg
   xmlns:dc="http://purl.org/dc/elements/1.1/"
   xmlns:cc="http://creativecommons.org/ns#"
   xmlns:rdf="http://www.w3.org/1999/02/22-rdf-syntax-ns#"
   xmlns:svg="http://www.w3.org/2000/svg"
   xmlns="http://www.w3.org/2000/svg"
   xmlns:sodipodi="http://sodipodi.sourceforge.net/DTD/sodipodi-0.dtd"
   xmlns:inkscape="http://www.inkscape.org/namespaces/inkscape"
   version="1.1"
   viewBox="0 0 48 48"
   preserveAspectRatio="xMidYMid"
   id="svg5058"
   inkscape:version="0.48.2 r9819"
   width="100%"
   height="100%"
   sodipodi:docname="Vector - Zebra Art by DragonArt00.svg"
   style="fill-rule:evenodd">
  <metadata
     id="metadata5922">
    <rdf:RDF>
      <cc:Work
         rdf:about="">
        <dc:format>image/svg+xml</dc:format>
        <dc:type
           rdf:resource="http://purl.org/dc/dcmitype/StillImage" />
        <dc:title></dc:title>
      </cc:Work>
    </rdf:RDF>
  </metadata>
  <defs
     id="defs5920" />
  <sodipodi:namedview
     pagecolor="#ffffff"
     bordercolor="#666666"
     borderopacity="1"
     objecttolerance="10"
     gridtolerance="10"
     guidetolerance="10"
     inkscape:pageopacity="0"
     inkscape:pageshadow="2"
     inkscape:window-width="1680"
     inkscape:window-height="988"
     id="namedview5918"
     showgrid="false"
     inkscape:zoom="10.745852"
     inkscape:cx="19.70691"
     inkscape:cy="22.559949"
     inkscape:window-x="-8"
     inkscape:window-y="-8"
     inkscape:window-maximized="1"
     inkscape:current-layer="svg5058" />
  <rect
     style="fill:none;stroke:none;visibility:visible"
     x="-141"
     y="-1673"
     width="1418"
     height="874"
     id="rect5076" />
  <rect
     style="fill:none;stroke:none;visibility:visible"
     x="785"
     y="-103"
     width="436"
     height="558"
     id="rect5088" />
  <rect
     style="fill:none;stroke:none;visibility:visible"
     x="-389"
     y="-280"
     width="749"
     height="897"
     id="rect5124" />
  <rect
     style="fill:none;stroke:none;visibility:visible"
     x="-315"
     y="-912"
     width="1047"
     height="1473"
     id="rect5160" />
  <rect
     style="fill:none;stroke:none;visibility:visible"
     x="-237"
     y="-929"
     width="947"
     height="1281"
     id="rect5172" />
  <rect
     style="fill:none;stroke:none;visibility:visible"
     x="-54"
     y="-1210"
     width="679"
     height="1436"
     id="rect5232" />
  <rect
     style="fill:none;stroke:none;visibility:visible"
     x="-393"
     y="-942"
     width="575"
     height="844"
     id="rect5244" />
  <rect
     style="fill:none;stroke:none;visibility:visible"
     x="436"
     y="-1672"
     width="528"
     height="643"
     id="rect5316" />
  <rect
     style="fill:none;stroke:none;visibility:visible"
     x="1042"
     y="-1550"
     width="259"
     height="488"
     id="rect5772" />
  <g
     id="g12035"
     transform="matrix(0.04234257,0,0,0.04234221,0.07515325,0.1719566)">
    <g
       class="Master_Slide"
       id="Default"
       visibility="visible"
       style="visibility:visible">
      <g
         id="g5061"
         style="fill:none;stroke:none">
        <rect
           id="rect5063"
           height="1129"
           width="1129"
           y="0"
           x="0" />
      </g>
    </g>
    <path
       id="path5072"
       d="M 132.1875,-0.65625 C 133.00795,9.5883995 132.4638,17.222168 130,21 88.243654,39.703363 43.099574,78.089444 0.375,121.25 l 0,36.9375 L 124,75 c 7,-16 28,-24 33,-44 2.68091,-10.723647 1.18433,-21.242691 -1.84375,-31.65625 l -22.96875,0 z"
       style="fill:#000000;stroke:none;visibility:visible"
       inkscape:connector-curvature="0" />
    <path
       id="path5084"
       d="m 1105,978 c -2,35 -6,113 -20,110 -13,-4 -17,-10 -30,-43 -14,-32 -16,-19 -27,-7 -12,11 -23,-25 -41,-39 -17,-13 -38,4 -48,-6 -9,-9 -64,12 -68,17 -4,6 -51,56 -53,78 -1.22403,13.4643 -6.44229,26.4615 -12.125,40.625 l 323.7812,0 0,-99.125 C 1119.8192,1009.8157 1108.8255,991.66245 1105,978 z"
       style="fill:#000000;stroke:none;visibility:visible"
       inkscape:connector-curvature="0" />
    <path
       id="path5156"
       d="M 178,169 C 134,202 53,255 24,286 18.013802,292.39904 9.8278176,303.01139 0.375,316.1875 l 0,37.46875 C 19.667758,324.2467 35.2061,303.05638 53,288 91,255 155,211 178,169 z"
       style="fill:#000000;stroke:none;visibility:visible"
       inkscape:connector-curvature="0" />
    <path
       id="path5168"
       d="m 190,152 c -1.78012,6.59693 -3.44174,12.5673 -5.0625,18.1875 2.21732,-5.92905 3.9375,-12 5.0625,-18.1875 z m -5.125,18.34375 C 163.37584,227.58194 95.824593,272.17541 75,293 56.10695,311.10584 23.60664,357.06989 0.375,396.3125 l 0,126.59375 C 23.175556,463.87555 49.794641,402.69549 62,377 c 18,-41 72,-114 87,-130 13.41454,-14.30884 22.04439,-28.731 35.875,-76.65625 z M 660.4375,1051.8125 C 660.14307,1051.8687 660,1052.25 660,1053 c -1.23981,28.5156 -6.79909,53.5119 -15.4375,75.625 l 59.03125,0 c -9.69852,-18.1784 -39.15497,-77.5756 -43.15625,-76.8125 z"
       style="fill:#000000;stroke:none;visibility:visible"
       inkscape:connector-curvature="0" />
    <path
       id="path5180"
       d="M 132.125,-0.65625 C 133.06868,10.099696 132.54441,18.098573 130,22 88.243654,40.703363 43.099574,79.089444 0.375,122.25 l 0,36.9375 L 124,76 c 7,-16 28,-24 33,-45 3.21152,-10.552127 1.56535,-21.104123 -1.71875,-31.65625 l -23.15625,0 z"
       style="fill:#000000;stroke:none;visibility:visible"
       inkscape:connector-curvature="0" />
    <rect
       id="rect5184"
       height="486"
       width="301"
       y="-203"
       x="-141"
       style="fill:none;stroke:none;visibility:visible" />
    <path
       id="path5228"
       d="M 181.375,-0.65625 C 193.8114,33.297949 200.58727,67.468163 210,91 c 11,25 9,67 -5,95 -15,27 -31,61 -49,83 C 139,291 83,404 74,432 66.1318,457.35309 23.099508,549.20199 0.375,633.375 l 0,203.15625 C 0.78267175,832.35551 1.3167796,828.18472 2,824 10,775 40,676 65,621 c 25,-56 39,-101 51,-136 13,-34 22,-57 25,-81 3,-24 11,-65 19,-85 9,-20 10,-36 23,-58 14,-21 51,-85 50,-135 -0.73884,-36.941964 -2.04342,-85.339907 -12.34375,-126.65625 l -39.28125,0 z m -181,884.0625 0,245.21875 93.65625,0 C 63.47233,1089.8225 17.989455,1025.7713 12,977 8.4210272,943.59625 2.7054886,913.02722 0.375,883.40625 z M 597,994 c -4,2 -5,15 -8,24 -2,9 -45,72 -74,102 -2.58633,2.6755 -5.6445,5.5675 -9.03125,8.625 l 65.1875,0 C 598.89097,1087.2159 623,1056.4781 623,1010 c -10,-2 -19,-10 -26,-16 z"
       style="fill:#000000;stroke:none;visibility:visible"
       inkscape:connector-curvature="0" />
    <path
       id="path5240"
       d="m 175,139 c -7,0 -28,11 -41,18 -11.77528,6.86891 -91.888089,45.50486 -133.625,89.46875 l 0,35.40625 C 7.7370957,272.66635 14.165731,265.0357 19,260 44,236 143,185 176,152 c 6,-9 7,-13 -1,-13 z"
       style="fill:#000000;stroke:none;visibility:visible"
       inkscape:connector-curvature="0" />
    <path
       id="path5252"
       d="M 158.75,83.71875 C 157.8374,83.72525 156.59375,83.8125 155,84 c -17,2 -82,16 -98,29 -7.763464,6.39344 -31.198153,21.35518 -56.625,38.46875 l 0,13.40625 C 11.211724,156.06079 20.05622,149.47189 25,147 47,135 115,101 131,96 146.40625,91.46875 167.57178,83.655914 158.75,83.71875 z M 150.4375,103.5 C 142.375,103.54688 124.75,108.25 106,118 86.333802,129.01307 29.555989,154.87684 0.375,173.6875 l 0,15.65625 C 16.839755,176.09843 33.073276,164.7745 47,159 c 41,-17 94,-51 108,-54 -0.25,-1 -1.875,-1.51562 -4.5625,-1.5 z m 19.40625,22.375 C 158.65967,125.58569 140.5625,130.625 104,155 77.732164,171.4174 32.591217,199.00116 0.375,219.71875 l 0,9.875 C 57.219897,190.63829 150.33178,132.50046 172,126 c -0.6875,-0.0625 -1.41064,-0.10571 -2.15625,-0.125 z M 84,154 c -11.068555,1.22984 -47.464427,22.51743 -83.625,48.25 l 0,11.6875 C 30.635765,189.92274 70.507407,160.42504 84,154 z"
       style="fill:#000000;stroke:none;visibility:visible"
       inkscape:connector-curvature="0" />
    <rect
       id="rect5256"
       height="820"
       width="544"
       y="84"
       x="-371"
       style="fill:none;stroke:none;visibility:visible" />
    <path
       inkscape:connector-curvature="0"
       id="path5264"
       d="M 1003,1025 C 960,894 927,759 910,715 893,671 849,575 822,534 795,494 779,461 785,404 c 6,-58 12,-193 21,-216 10,-23 29,-38 64,-38 6,13 -10,15 -19,31 -10,15 -20,36 -20,57 0,21 0,145 6,179 6,35 29,110 46,152 17,42 37,129 54,188 17,60 52,202 66,268 z"
       style="fill:#000000;stroke:none;visibility:visible" />
    <rect
       id="rect5268"
       height="876"
       width="221"
       y="150"
       x="784"
       style="fill:none;stroke:none;visibility:visible" />
    <path
       inkscape:connector-curvature="0"
       id="path5276"
       d="m 1073,825 c 3,12 7,23 12,34 -4,-12 -8,-23 -12,-34 z m 48,-400 c -3,-35 -22,-69 -42,-96 -19,-27 -63,-94 -86,-125 C 970,173 903,100 885,85 868,70 847,52 832,54 c -16,2 -58,58 -64,85 -6,27 -23,71 -23,109 0,39 -29,129 -44,154 -16,25 -8,69 0,81 8,11 15,48 29,75 13,26 46,46 67,61 21,15 69,96 92,156 23,59 44,119 67,210 -13,-91 -26,-145 -50,-216 -23,-71 -51,-138 -86,-179 -35,-40 -56,-67 -75,-94 -19,-27 -10,-79 -2,-104 8,-25 21,-59 31,-98 9,-38 19,-100 23,-117 4,-17 29,-33 36,-36 6,-3 15,-7 21,-5 -2,-1 -4,-2 -6,-3 -11,-6 -32,-11 -41,-12 -10,-1 -11,-6 7,-8 16,-2 54,9 66,11 11,2 23,10 10,14 -9,3 -23,2 -34,-2 2,1 4,3 4,5 4,9 18,25 20,21 1,-4 -4,-10 7,-10 12,0 71,62 94,89 23,26 56,82 72,103 15,21 42,75 42,104 0,29 -18,79 -31,111 -13,33 -17,98 -19,133 -2,30 6,68 28,133 -14,-53 -12,-112 -19,-141 -7,-34 27,-117 39,-151 11,-35 30,-73 28,-108 z M 873,104 c -8,-7 -34,-11 -44,-6 -11,6 -26,10 -18,-4 7,-10 13,-28 25,-23 13,6 51,26 56,38 5,11 -11,2 -19,-5 z"
       style="fill:#000000;stroke:none;visibility:visible" />
    <rect
       id="rect5280"
       height="933"
       width="432"
       y="54"
       x="691"
       style="fill:none;stroke:none;visibility:visible" />
    <path
       inkscape:connector-curvature="0"
       id="path5288"
       d="M 1037,1066 C 991,911 970,804 958,769 947,734 914,644 916,610 c 2,-35 -8,-87 -17,-110 -10,-23 -35,-127 -39,-184 -4,-57 -19,-137 12,-141 11,-13 0,-19 7,-21 8,-2 8,16 18,19 9,4 57,46 75,81 17,35 53,96 67,115 13,20 34,87 23,121 -12,35 -29,83 -27,112 2,29 -4,90 2,119 6,29 19,100 35,138 15,39 24,144 22,179 -11,-88 -17,-102 -26,-148 -10,-46 -25,-79 -35,-125 -9,-46 -17,-165 -11,-209 5,-44 0,-102 -8,-137 -8,-34 -35,-90 -56,-125 -21,-35 -32,-53 -44,-67 -12,-13 -31,-11 -33,0 -2,12 -5,34 2,29 8,-5 9,-18 11,-23 2,-5 15,-7 16,4 1,10 15,31 25,45 11,13 39,65 43,95 5,30 7,71 11,129 4,57 10,123 11,154 2,30 26,145 42,189 16,45 36,154 29,215 -8,-66 -15,-144 -29,-192 -15,-47 -32,-108 -42,-145 -10,-38 -30,-121 -30,-157 0,-36 -20,-100 -20,-133 0,-33 -8,-73 -9,-96 -2,-24 -27,-52 -33,-71 -6,-19 -20,-2 -15,20 6,22 18,48 21,66 2,19 14,57 11,81 -3,25 3,49 10,72 7,23 12,56 13,81 2,24 17,94 27,127 11,33 52,212 73,282 -16,-43 -42,-140 -49,-164 -8,-25 -31,-104 -36,-130 -6,-26 -21,-72 -21,-88 0,-16 -1,-43 -3,-57 -1,-15 -14,-22 -13,8 2,30 6,64 12,82 6,19 20,70 30,108 10,39 25,114 36,162 12,47 27,107 33,146 z"
       style="fill:#000000;stroke:none;visibility:visible" />
    <rect
       id="rect5292"
       height="914"
       width="244"
       y="154"
       x="852"
       style="fill:none;stroke:none;visibility:visible" />
    <path
       inkscape:connector-curvature="0"
       id="path5300"
       d="m 1047,957 c -35,-124 -50,-207 -67,-249 23,48 59,177 67,249 z"
       style="fill:#000000;stroke:none;visibility:visible" />
    <rect
       id="rect5304"
       height="250"
       width="68"
       y="708"
       x="980"
       style="fill:none;stroke:none;visibility:visible" />
    <path
       id="path5312"
       d="M 784.46875,-0.65625 C 783.06729,10.452511 779.07636,23.381813 780,28 c 9,-3 16,-16 22,-24 2,14 12,23 14,36 10,-7 3,-20 9,-28 3,6 8,10 10,16 0,-3 2,-6 2,-10 10,18 25,21 40,33 -3,-13 -18,-20 -24,-32 13,0 24,4 30,17 -1,-5 1,-12 1,-17 10,6 19,14 27,23 -1,-2 3,-14 4,-16 13.39702,3.091621 14.58203,-10.8121 12.71875,-26.65625 l -143.25,0 z"
       style="fill:#000000;stroke:none;visibility:visible"
       inkscape:connector-curvature="0" />
    <path
       inkscape:connector-curvature="0"
       id="path5324"
       d="m 695,536 c 19,40 23,61 46,73 23,12 90,81 100,117 10,37 54,200 66,247 C 889,938 874,888 862,842 851,795 841,757 820,726 799,695 776,663 753,646 730,628 718,622 695,536 z"
       style="fill:#000000;stroke:none;visibility:visible" />
    <rect
       id="rect5328"
       height="438"
       width="213"
       y="536"
       x="695"
       style="fill:none;stroke:none;visibility:visible" />
    <path
       inkscape:connector-curvature="0"
       id="path5336"
       d="m 518,506 c 10,46 22,73 56,79 35,6 100,21 119,40 19,19 91,85 114,129 23,44 67,173 74,232 -36,-103 -46,-132 -55,-163 -10,-31 -29,-46 -46,-71 -18,-25 -62,-63 -85,-75 -23,-12 -57,-6 -82,-17 -25,-12 -56,-25 -66,-8 -9,17 -19,115 -7,150 11,35 34,111 55,129 21,17 25,59 46,80 -15,5 -27,-5 -38,-13 8,-8 -8,-19 -15,-31 -8,-11 -18,-52 -31,-73 -14,-21 -37,-63 -39,-96 -2,-33 -7,-119 2,-159 10,-41 8,-56 4,-79 -4,-23 -6,-54 -6,-54 z"
       style="fill:#000000;stroke:none;visibility:visible" />
    <rect
       id="rect5340"
       height="508"
       width="368"
       y="506"
       x="515"
       style="fill:none;stroke:none;visibility:visible" />
    <path
       inkscape:connector-curvature="0"
       id="path5348"
       d="m 624,949 c -9,-19 -23,-38 -36,-63 -14,-25 -33,-73 -27,-96 6,-23 12,-58 54,-60 42,-1 88,-3 104,6 15,10 78,52 103,102 -34,-27 -48,-40 -71,-44 -23,-4 -75,-12 -96,0 -21,11 -42,34 -59,31 -2,17 -4,44 7,63 12,19 14,38 23,42 10,4 8,-15 8,-29 0,-14 4,-25 48,-40 44,-15 75,-23 100,-10 25,14 56,58 67,97 12,38 21,63 28,93 -26,-65 -39,-97 -55,-111 -15,-13 -40,-38 -59,-40 -19,-2 -42,-2 -64,4 -21,6 -42,21 -53,34 -12,14 -10,20 -22,21 z"
       style="fill:#000000;stroke:none;visibility:visible" />
    <rect
       id="rect5352"
       height="313"
       width="319"
       y="729"
       x="560"
       style="fill:none;stroke:none;visibility:visible" />
    <path
       inkscape:connector-curvature="0"
       id="path5360"
       d="m 637,984 c 23,-2 54,-8 67,-17 14,-10 64,-4 83,9 19,14 40,25 50,41 10,15 0,30 -6,44 -6,14 -19,-8 -29,-23 -9,-16 -23,-17 -48,-17 -25,0 -48,17 -65,13 -17,-4 -19,-21 -35,-29 -15,-8 -13,-6 -17,-21 z"
       style="fill:#000000;stroke:none;visibility:visible" />
    <rect
       id="rect5364"
       height="105"
       width="206"
       y="962"
       x="637"
       style="fill:none;stroke:none;visibility:visible" />
    <path
       id="path5372"
       d="m 668,1061 c 0,0 7,16 11,20 3,4 4,-1 27,9 23,9 45,13 70,19 25,6 21,4 32,19 0.16216,0.2162 0.30872,0.4099 0.46875,0.625 l 9.71875,0 c -3.06413,-4.1417 -5.87546,-8.1569 -8.1875,-11.625 -9,-16 -56,-31 -75,-33 -19,-2 -30,-11 -67,-23 z"
       style="fill:#000000;stroke:none;visibility:visible"
       inkscape:connector-curvature="0" />
    <rect
       id="rect5376"
       height="100"
       width="184"
       y="1061"
       x="668"
       style="fill:none;stroke:none;visibility:visible" />
    <path
       id="path5384"
       d="m 1121,656.84375 c -3.0858,-0.42517 -3.625,16.5 -7,29.15625 -4,16 -11,40 -16,45 -4,4 -1,21 0,28 1,8 7,-5 7,-19 0,-14 17,-25 18,-17 1,8 9,55 -1,62 -9,8 -27,33 -23,48 5,16 9,33 11,58 2,25 11,63 13,98 1.6204,28.3568 4.5375,43.5446 6.6562,56.2812 l 0,-103.31245 C 1127.0159,905.0825 1123.5551,884.20544 1127,871 c 0.9626,-3.68996 1.8481,-9.14416 2.6562,-15.78125 l 0,-175.71875 c -2.0863,-9.27141 -4.4394,-16.80527 -6.6562,-20.5 -0.7812,-1.40625 -1.4286,-2.07751 -2,-2.15625 z"
       style="fill:#000000;stroke:none;visibility:visible"
       inkscape:connector-curvature="0" />
    <rect
       id="rect5388"
       height="399"
       width="42"
       y="657"
       x="1096"
       style="fill:none;stroke:none;visibility:visible" />
    <path
       inkscape:connector-curvature="0"
       id="path5396"
       d="m 1108,539 c -17,39 -13,44 -17,53 -4,8 -13,37 -18,49 -5,11 -13,86 -5,115 3,-54 5,-88 12,-111 6,-23 20,-49 22,-69 2,-19 6,-18 6,-37 z"
       style="fill:#000000;stroke:none;visibility:visible" />
    <rect
       id="rect5400"
       height="218"
       width="45"
       y="539"
       x="1065"
       style="fill:none;stroke:none;visibility:visible" />
    <path
       inkscape:connector-curvature="0"
       id="path5408"
       d="m 1082,789 c -4,-64 -5,-87 3,-106 7,-19 16,-58 18,-76 2,-18 13,-33 19,-46 -6,21 -8,35 -11,51 -3,16 -10,50 -14,60 -4,11 -12,31 -15,117 z"
       style="fill:#000000;stroke:none;visibility:visible" />
    <rect
       id="rect5412"
       height="230"
       width="45"
       y="560"
       x="1079"
       style="fill:none;stroke:none;visibility:visible" />
    <path
       id="path5420"
       d="M 967.75,-0.65625 C 972.36476,5.1017828 976.91742,10.577206 981,15 c 13,13 26,39 39,70 -18,-59 -29,-70 -41,-83 -0.78319,-0.7831858 -1.62181,-1.68083631 -2.5,-2.65625 l -8.75,0 z"
       style="fill:#000000;stroke:none;visibility:visible"
       inkscape:connector-curvature="0" />
    <rect
       id="rect5424"
       height="182"
       width="112"
       y="-96"
       x="909"
       style="fill:none;stroke:none;visibility:visible" />
    <path
       id="path5432"
       d="M 946.28125,-0.65625 C 958.96069,13.366526 982.40767,38.414066 992,56 c 11,23 100,166 75,121 -24,-45 -39,-70 -51,-88 C 1003,71 996,46 984,31 978.04522,24.587156 967.47745,12.063408 957,-0.65625 l -10.71875,0 z"
       style="fill:#000000;stroke:none;visibility:visible"
       inkscape:connector-curvature="0" />
    <rect
       id="rect5436"
       height="242"
       width="164"
       y="-55"
       x="909"
       style="fill:none;stroke:none;visibility:visible" />
    <path
       id="path5444"
       d="M 923.84375,-0.65625 C 944.11363,18.390667 983.47652,65.032451 989,77 c 7,14 18,34 45,65 -14,-18 -27,-39 -36,-58 C 989,65 967,37 960,26 956.60488,21.756096 947.38778,10.975561 937.28125,-0.65625 l -13.4375,0 z"
       style="fill:#000000;stroke:none;visibility:visible"
       inkscape:connector-curvature="0" />
    <rect
       id="rect5448"
       height="182"
       width="133"
       y="-39"
       x="903"
       style="fill:none;stroke:none;visibility:visible" />
    <path
       id="path5456"
       d="M 880.5,3.1875 C 871.59448,3.3789062 863.625,5.875 861,12 c 65,12 117,93 134,115 16,23 59,66 78,85 14.4278,13.70643 37.6742,40.41619 56.6562,64 l 0,-18.9375 C 1113.6982,233.50098 1092.1389,217.83594 1071,200 1040,172 1015,131 996,106 978,81 932,33 910,11 904.9375,6.5 891.94995,2.9414062 880.5,3.1875 z"
       style="fill:#000000;stroke:none;visibility:visible"
       inkscape:connector-curvature="0" />
    <rect
       id="rect5460"
       height="300"
       width="290"
       y="2"
       x="860"
       style="fill:none;stroke:none;visibility:visible" />
    <path
       inkscape:connector-curvature="0"
       id="path5468"
       d="m 842,9 c 25,28 68,52 82,70 13,18 44,53 76,89 31,35 -5,-17 -34,-47 -29,-29 -63,-68 -78,-81 31,18 75,66 89,84 13,19 44,52 61,69 17,18 61,64 74,85 12,21 19,51 21,76 1,25 -4,40 -13,13 -10,-26 -17,-39 -31,-61 -14,-22 -17,-31 -42,-57 -25,-26 -56,-60 -70,-81 C 962,146 940,122 914,101 888,80 863,55 854,39 844,22 844,22 842,9 z"
       style="fill:#000000;stroke:none;visibility:visible" />
    <rect
       id="rect5472"
       height="374"
       width="293"
       y="9"
       x="842"
       style="fill:none;stroke:none;visibility:visible" />
    <path
       id="path5480"
       d="M 686.90625,-0.65625 C 686.26354,0.23124852 685.5969,1.157315 685,2 c -17,24 -35,81 -35,107 0,26 -4,79 -21,110 -16,30 -36,74 -46,93 -9,19 -7,29 0,33 7,3 21,20 29,28 8,9 18,16 22,12 4,-3 5,-17 12,-24 6,-7 13,-8 13,8 0,15 18,21 20,9 2,-10 22,-56 30,-78 8,-21 15,-54 19,-93 4,-38 31,-92 44,-114 14,-22 40,-40 54,-54 14.42332,-12.50021 16.82562,-28.649753 19.65625,-39.65625 l -21.9375,0 C 816.44758,10.622954 804.76894,30.045138 795,39 c -13,11 -25,32 -40,46 -14,15 2,-26 15,-40 12,-15 10,-16 -7,-2 -18,14 -37,68 -40,91 -2,23 -20,54 -35,85 -15,30 -40,71 -40,84 0,14 -2,31 -8,32 -6,1 -9,11 -10,25 -1,13 -12,0 -23,-8 -10,-7 -3,-20 1,-30 4,-11 40,-80 50,-100 11,-21 30,-56 38,-71 7,-14 18,-55 33,-83 15.10929,-26.441266 51.6081,-54.648171 72.46875,-68.65625 l -57.96875,0 C 716.59578,35.36834 698.47279,82.114989 686,113 c -21,52 -23,26 -13,-11 8.53504,-34.140159 25.17673,-75.448637 38.8125,-102.65625 l -24.90625,0 z"
       style="fill:#000000;stroke:none;visibility:visible"
       inkscape:connector-curvature="0" />
    <rect
       id="rect5484"
       height="473"
       width="271"
       y="-86"
       x="577"
       style="fill:none;stroke:none;visibility:visible" />
    <path
       id="path5492"
       d="m 1050,7 c -10,0 -10,7 1,26 10,19 0,58 -10,84 12,21 26,59 34,71 7,11 13,12 33,37 9.0121,-3.21861 14.7395,-14.32417 21.6562,-27.6875 l 0,-126.21875 C 1113.0724,53.782238 1092.9048,35.857221 1087,27 1078,13 1060,7 1050,7 z"
       style="fill:#000000;stroke:none;visibility:visible"
       inkscape:connector-curvature="0" />
    <rect
       id="rect5496"
       height="220"
       width="118"
       y="7"
       x="1040"
       style="fill:none;stroke:none;visibility:visible" />
    <path
       id="path5504"
       d="M 1129.6562,497.375 C 1127.6275,519.75611 1124,550.44931 1124,575 c 0,12.29564 2.3448,17.58488 5.6562,18.3125 l 0,-95.9375 z"
       style="fill:#000000;stroke:none;visibility:visible"
       inkscape:connector-curvature="0" />
    <rect
       id="rect5508"
       height="362"
       width="128"
       y="233"
       x="1124"
       style="fill:none;stroke:none;visibility:visible" />
    <rect
       id="rect5532"
       height="620"
       width="297"
       y="431"
       x="1141"
       style="fill:none;stroke:none;visibility:visible" />
    <path
       id="path5588"
       d="M 644.375,-0.65625 C 638.1686,18.820423 626.29686,42.69493 610,71 c -19,33 -26,72 -27,98 -2,26 -5,62 -12,75 -7,13 -33,43 -39,59 -6,16 -3,45 3,46 6,2 20,11 20,-10 0,-20 25,-73 36,-89 12,-16 22,-38 25,-59 3,-22 7,-72 8,-91 1.95222,-18.546088 24.87096,-81.830564 37.125,-100.65625 l -16.75,0 z"
       style="fill:#000000;stroke:none;visibility:visible"
       inkscape:connector-curvature="0" />
    <rect
       id="rect5592"
       height="649"
       width="207"
       y="-295"
       x="529"
       style="fill:none;stroke:none;visibility:visible" />
    <path
       inkscape:connector-curvature="0"
       id="path5612"
       d="m 415,368 c -6,-104 -9,-225 -6,-245 3,-20 3,-52 13,-46 10,5 31,52 38,62 7,10 13,7 23,-12 10,-19 23,-43 36,-47 13,-5 47,-42 50,-62 1,-21 -13,4 -26,18 -13,15 -18,23 -30,23 -11,0 -26,22 -39,34 -13,11 -36,-8 -39,-25 -3,-17 -20,-26 -27,-7 -7,19 -26,83 -26,145 0,62 12,142 13,173 1,32 7,95 9,119 1,23 2,37 2,65 5,-91 8,-101 5,-139 -3,-37 -12,-65 -13,-86 -2,-22 -6,-107 -3,-133 3,-26 6,9 7,36 2,27 2,68 4,95 3,28 5,22 9,32 z"
       style="fill:#000000;stroke:none;visibility:visible" />
    <rect
       id="rect5616"
       height="556"
       width="189"
       y="9"
       x="382"
       style="fill:none;stroke:none;visibility:visible" />
    <path
       inkscape:connector-curvature="0"
       id="path5624"
       d="m 437,225 c -6,-23 -13,-73 -10,-94 3,-20 1,6 10,23 8,18 17,48 10,61 -6,14 -10,10 -10,10 z"
       style="fill:#000000;stroke:none;visibility:visible" />
    <rect
       id="rect5628"
       height="103"
       width="26"
       y="124"
       x="425"
       style="fill:none;stroke:none;visibility:visible" />
    <path
       inkscape:connector-curvature="0"
       id="path5636"
       d="m 470,190 c 16,-25 17,-38 27,-47 10,-9 18,-12 24,-18 -16,18 -21,27 -29,37 -9,9 -18,22 -22,28 z"
       style="fill:#000000;stroke:none;visibility:visible" />
    <rect
       id="rect5640"
       height="66"
       width="52"
       y="125"
       x="470"
       style="fill:none;stroke:none;visibility:visible" />
    <path
       id="path5648"
       d="M 610.9375,-0.65625 C 604.16042,19.055906 587.09002,48.141788 570,73 c -22,32 -39,49 -48,60 -9,12 -9,32 -16,55 -7,23 -30,58 -30,84 0,26 10,56 32,106 -6,-21 -15,-58 -16,-80 -1,-22 9,-59 13,-72 4,-14 17,-45 26,-53 10,-9 19,-30 20,-41 1,-10 31,-49 40,-61 8,-13 31,-57 34,-64 1.19904,-1.7985577 1.75298,-4.4288335 2.125,-7.65625 l -16.1875,0 z"
       style="fill:#000000;stroke:none;visibility:visible"
       inkscape:connector-curvature="0" />
    <rect
       id="rect5652"
       height="482"
       width="178"
       y="-102"
       x="476"
       style="fill:none;stroke:none;visibility:visible" />
    <path
       inkscape:connector-curvature="0"
       id="path5660"
       d="m 505,319 c -4,-26 3,-52 20,-78 17,-26 22,-50 27,-59 6,-9 12,13 2,32 -9,18 -25,43 -29,62 -4,18 -6,53 -7,67 -2,16 -9,6 -13,-24 z"
       style="fill:#000000;stroke:none;visibility:visible" />
    <rect
       id="rect5664"
       height="172"
       width="58"
       y="180"
       x="503"
       style="fill:none;stroke:none;visibility:visible" />
    <path
       inkscape:connector-curvature="0"
       id="path5672"
       d="m 501,168 c -16,24 -34,41 -43,50 -8,9 -28,29 -22,53 7,24 24,40 30,93 6,53 10,167 2,213 -8,46 -31,204 10,283 -16,-85 -16,-170 -10,-189 6,-19 16,-10 13,20 -3,30 -12,157 45,239 10,13 22,3 3,-26 -19,-28 -31,-60 -34,-119 -2,-59 -11,-101 -4,-140 7,-39 16,-91 17,-102 2,-12 9,-19 13,-8 5,12 -7,-15 -7,-37 0,-22 -10,-110 -22,-139 2,17 14,77 14,95 1,19 -5,49 -7,69 -2,21 -12,109 -18,118 -7,8 -7,-20 -3,-38 3,-18 2,-68 3,-115 0,-47 -1,-103 -7,-133 -6,-29 -28,-68 -26,-81 2,-13 10,-42 29,-61 18,-19 22,-34 24,-45 z"
       style="fill:#000000;stroke:none;visibility:visible" />
    <rect
       id="rect5676"
       height="770"
       width="107"
       y="167"
       x="434"
       style="fill:none;stroke:none;visibility:visible" />
    <path
       inkscape:connector-curvature="0"
       id="path5684"
       d="m 515,402 c -7,-7 24,-16 44,-14 20,2 62,32 71,54 9,22 28,60 46,62 20,1 -20,5 -30,-9 -11,-15 -25,-2 -21,3 5,5 18,4 17,12 -1,9 -9,7 -20,7 -12,0 -16,9 -22,13 -5,6 -17,7 -28,-6 -12,-13 -21,-22 -21,-33 0,-11 7,9 16,12 8,2 24,9 22,0 -2,-10 -26,-12 -39,-31 -12,-19 -7,-31 -15,-42 -8,-12 -10,-18 -20,-28 z"
       style="fill:#000000;stroke:none;visibility:visible" />
    <rect
       id="rect5688"
       height="148"
       width="169"
       y="388"
       x="514"
       style="fill:none;stroke:none;visibility:visible" />
    <path
       inkscape:connector-curvature="0"
       id="path5696"
       d="m 515,402 c -4,5 5,24 10,42 6,18 6,45 7,64 1,18 9,24 19,34 -11,-32 -15,-39 -15,-56 0,-16 -4,-46 -10,-57 -5,-12 -2,-9 6,-14 8,-4 -8,-26 -17,-13 z"
       style="fill:#000000;stroke:none;visibility:visible" />
    <rect
       id="rect5700"
       height="146"
       width="38"
       y="398"
       x="514"
       style="fill:none;stroke:none;visibility:visible" />
    <path
       inkscape:connector-curvature="0"
       id="path5708"
       d="m 496,891 c -22,-2 -68,-18 -97,-49 -29,-31 -44,-75 -59,-124 -16,-50 -41,-85 -37,-131 4,-46 -21,-131 -15,-167 6,-37 6,-69 8,-96 1,-27 1,-87 11,-110 10,-23 42,-98 60,-129 17,-30 30,-52 42,-65 -25,46 -60,115 -65,142 -6,27 -29,112 -22,173 8,62 8,144 22,177 14,33 36,102 38,136 2,35 17,98 35,121 17,23 21,39 32,47 19,30 47,75 47,75 z"
       style="fill:#000000;stroke:none;visibility:visible" />
    <rect
       id="rect5712"
       height="872"
       width="210"
       y="20"
       x="287"
       style="fill:none;stroke:none;visibility:visible" />
    <path
       inkscape:connector-curvature="0"
       id="path5720"
       d="m 409,31 c -31,59 -61,146 -66,184 -4,39 -8,127 5,165 13,37 18,89 20,109 1,20 33,90 33,125 3,-63 1,-71 1,-83 -13,-19 -14,-37 -14,-56 0,-19 0,-77 -4,-92 -5,-16 -12,-62 -15,-101 -3,-39 -10,-116 6,-152 16,-36 25,-77 34,-99 z"
       style="fill:#000000;stroke:none;visibility:visible" />
    <rect
       id="rect5724"
       height="584"
       width="71"
       y="31"
       x="339"
       style="fill:none;stroke:none;visibility:visible" />
    <path
       inkscape:connector-curvature="0"
       id="path5732"
       d="m 433,330 c -2,69 -3,115 -8,141 -4,26 -8,110 -7,142 10,-81 15,-100 16,-127 3,-28 5,-101 -1,-156 z"
       style="fill:#000000;stroke:none;visibility:visible" />
    <rect
       id="rect5736"
       height="284"
       width="21"
       y="330"
       x="418"
       style="fill:none;stroke:none;visibility:visible" />
    <path
       inkscape:connector-curvature="0"
       id="path5744"
       d="m 445,329 c 3,65 4,144 -2,190 -5,46 -7,186 -10,216 -2,31 10,57 13,68 -4,-36 -5,-89 -5,-111 0,-21 5,-86 11,-125 7,-39 0,-103 3,-144 4,-42 -4,-74 -10,-94 z"
       style="fill:#000000;stroke:none;visibility:visible" />
    <rect
       id="rect5748"
       height="475"
       width="26"
       y="329"
       x="432"
       style="fill:none;stroke:none;visibility:visible" />
    <path
       id="path5756"
       d="M 368.0625,-0.65625 C 367.92836,1.9383183 367.59851,4.4862577 367,7 c -6,22 -11,42 -25,65 19,-20 34,-46 34,-71 0,-0.55206074 -0.0229,-1.10327708 -0.0312,-1.65625 l -7.90625,0 z"
       style="fill:#000000;stroke:none;visibility:visible"
       inkscape:connector-curvature="0" />
    <rect
       id="rect5760"
       height="135"
       width="35"
       y="-62"
       x="342"
       style="fill:none;stroke:none;visibility:visible" />
    <path
       id="path5768"
       d="M 1042.8125,-0.65625 C 1045.6352,11.987188 1054.4972,24.259728 1058,12 c 0,0 -0.8292,-6.6062668 2.0312,-12.65625 l -17.2187,0 z"
       style="fill:#000000;stroke:none;visibility:visible"
       inkscape:connector-curvature="0" />
    <rect
       id="rect5832"
       height="32"
       width="52"
       y="-37"
       x="1009"
       style="fill:none;stroke:none;visibility:visible" />
    <path
       id="path5864"
       d="M 260.90625,-0.65625 C 263.16024,25.256308 265.16119,49.644743 269,65 c 7,33 -2,56 -12,79 -9,23 -44,88 -54,112 -9,23 -34,82 -38,121 -4,38 -40,115 -52,151 -11,37 -36,110 -58,162 -21,52 -46,142 -32,203 13,62 46,131 75,171 13.85364,19.5862 35.4789,43.2554 57.4375,64.625 l 90,0 C 207.34981,1094.9697 147.73166,1021.4767 128,983 109,944 88,905 80,851 73,797 69,740 84,682 c 16,-58 35,-113 50,-156 16,-42 32,-85 39,-112 7,-28 32,-71 33,-94 2,-23 22,-75 38,-114 16,-39 40,-78 40,-102 0,-24 -6,-78 -4,-94 0.15989,-2.5582494 -0.0761,-6.2632773 -0.5625,-10.65625 l -18.53125,0 z M 576.5,984.75 c -3.25,0.25 -7,3.25 -11.5,11.25 -9,17 -52,66 -62,75 -8.07933,8.977 -50.68421,38.0152 -78.875,57.625 l 48.5,0 C 499.95535,1099.4468 554.45673,1042.4507 565,1024 c 12,-21 15,-21 20,-34 -2.5,-3 -5.25,-5.5 -8.5,-5.25 z"
       style="fill:#000000;stroke:none;visibility:visible"
       inkscape:connector-curvature="0" />
    <rect
       id="rect5868"
       height="1415"
       width="568"
       y="-200"
       x="19"
       style="fill:none;stroke:none;visibility:visible" />
    <path
       id="path5888"
       d="M 309.9375,-0.65625 C 313.27235,27.017052 311.87756,58.740219 305,85 c -12,42 -64,144 -69,167 -6,23 -12,48 -20,71 -7,23 -63,181 -78,233 -16,52 -43,161 -33,226 10,66 56,169 96,216 40,46 65,86 129,92 63,7 92,-6 129,-31 36,-25 94,-71 108,-88 -7,-10 -12,-12 -18,-16 -21,27 -42,37 -58,44 -15,8 -56,37 -88,43 -33,6 -52,-19 -85,-54 C 286,953 236,873 215,832 193,792 165,704 168,650 c 4,-54 8,-135 22,-200 13,-65 26,-127 40,-158 -8,39 -25,118 -27,146 -2,29 -15,189 8,252 23,64 65,175 94,210 29,34 46,59 82,75 37,15 66,5 95,-6 28,-12 50,-29 59,-29 -4,-6 -16,-15 -18,-18 -3,-3 -7,1 -7,1 -21,21 -48,30 -63,23 -16,-8 -41,-25 -66,-56 -25,-31 -59,-73 -73,-131 -13,-57 -34,-111 -38,-159 -4,-48 -8,-167 -6,-231 2,-63 12,-127 39,-184 27,-58 67,-146 100,-177 -29,25 -75,98 -91,133 -16,35 -77,173 -71,203 6,31 -2,183 -4,204 -2,21 -13,23 -13,-37 0,-59 0,-121 4,-148 4,-26 9,-53 11,-74 2,-22 14,-50 27,-85 14,-35 65,-94 60,-154 -1.89098,-18.594681 -3.79646,-35.23043 -5.71875,-50.65625 l -16.34375,0 z"
       style="fill:#000000;stroke:none;visibility:visible"
       inkscape:connector-curvature="0" />
    <rect
       id="rect5892"
       height="1325"
       width="466"
       y="-232"
       x="103"
       style="fill:none;stroke:none;visibility:visible" />
    <path
       inkscape:connector-curvature="0"
       id="path5900"
       d="m 559,416 c 13,-5 27,8 27,16 0,8 -20,-1 -23,-5 -4,-5 -11,-9 -4,-11 z"
       style="fill:#ffffff;stroke:none;visibility:visible" />
    <rect
       id="rect5904"
       height="22"
       width="32"
       y="415"
       x="555"
       style="fill:none;stroke:none;visibility:visible" />
    <path
       inkscape:connector-curvature="0"
       id="path5912"
       d="m 560,473 c 12,14 44,16 57,11 14,-5 12,-7 10,-9 -5,3 -15,10 -27,9 -11,-1 -21,-2 -40,-11 z"
       style="fill:#ffffff;stroke:none;visibility:visible" />
    <rect
       id="rect5916"
       height="15"
       width="70"
       y="473"
       x="560"
       style="fill:none;stroke:none;visibility:visible" />
  </g>
  <g
     inkscape:groupmode="layer"
     id="layer1"
     inkscape:label="Слой"
     transform="translate(0,-1081)" />
</svg>
